<svg version="1.1" xmlns="http://www.w3.org/2000/svg" width="128" height="128" viewBox="0 0 128 128">
<title>star</title>
<path d="M48.82 45.002l12.787-27.581c0.876-1.881 3.436-1.899 4.329-0.030l13.14 27.403c0.358 0.744 1.041 1.256 1.826 1.369l29.010 4.197c1.985 0.292 2.793 2.834 1.365 4.304l-20.836 21.545c-0.563 0.583-0.819 1.423-0.677 2.244l5.142 30.177c0.353 2.054-1.707 3.649-3.487 2.685l-26.012-14.085c-0.705-0.381-1.547-0.375-2.247 0.018l-25.836 14.448c-1.763 0.988-3.845-0.578-3.521-2.637l4.761-30.248c0.131-0.822-0.136-1.655-0.705-2.233l-21.115-21.253c-1.445-1.453-0.666-4.001 1.308-4.316l28.959-4.614c0.785-0.125 1.462-0.643 1.809-1.393z"></path>
</svg>
